<svg xmlns="http://www.w3.org/2000/svg" viewBox="0 0 800 500"><rect width="800" height="500" fill="#3a3229"/><rect x="200" y="60" width="400" height="380" rx="8" fill="#6b6255" stroke="#2a241d" stroke-width="6"/><g fill="#8a8072" stroke="#2a241d" stroke-width="3"><rect x="240" y="110" width="40" height="70"/><rect x="290" y="110" width="40" height="70"/><rect x="380" y="110" width="40" height="70"/><rect x="470" y="110" width="40" height="70" fill="#5a4a3a"/><rect x="250" y="250" width="40" height="70"/><rect x="340" y="250" width="40" height="70"/></g><g fill="none" stroke-width="6" stroke-linecap="round"><path d="M260 180 C 300 300, 150 330, 120 480" stroke="#b22"/><path d="M310 180 C 420 260, 520 200, 700 470" stroke="#222"/><path d="M400 180 C 380 380, 640 300, 760 420" stroke="#b22"/><path d="M490 180 C 470 230, 300 240, 270 250" stroke="#2a5"/><path d="M360 320 C 420 440, 560 380, 520 490" stroke="#222"/></g><circle cx="490" cy="145" r="30" fill="#ffb02066"/><text x="400" y="475" fill="#f5e9d8" font-family="Arial" font-size="22" text-anchor="middle">Illustration: unlabelled, overloaded board</text></svg>
